<svg width="372" height="309" viewBox="0 0 372 309" fill="none" xmlns="http://www.w3.org/2000/svg">
<rect width="213.503" height="213.503" transform="matrix(0.866025 0.5 -0.866025 0.5 185.004 67.5491)" fill="#FFB69D"/>
<rect width="214.497" height="27.7434" transform="matrix(0.866025 0.5 -2.20305e-08 1 0 173.698)" fill="#EAA68F"/>
<rect width="212.533" height="27.7434" transform="matrix(0.866025 -0.5 2.20305e-08 1 185.76 280.567)" fill="#D99C87"/>
<rect width="213.503" height="213.503" transform="matrix(0.866025 0.5 -0.866025 0.5 186.21 34.9808)" fill="#2B5688"/>
<rect width="214.497" height="27.7434" transform="matrix(0.866025 0.5 -2.20305e-08 1 1.20605 141.129)" fill="#22436A"/>
<rect width="212.533" height="27.7434" transform="matrix(0.866025 -0.5 2.20305e-08 1 186.966 247.999)" fill="#1D395A"/>
<rect width="213.503" height="213.503" transform="matrix(0.866025 0.5 -0.866025 0.5 186.813 0)" fill="#FFE59D"/>
<rect width="214.497" height="27.7434" transform="matrix(0.866025 0.5 -2.20305e-08 1 1.80957 106.149)" fill="#EBD28F"/>
<rect width="212.533" height="27.7434" transform="matrix(0.866025 -0.5 2.20305e-08 1 187.569 213.018)" fill="#D9C284"/>
<g filter="url(#filter0_d_12_18824)">
<path d="M131.837 129.606C128.77 131.376 125.38 132.267 121.667 132.278C117.972 132.278 114.563 131.376 111.441 129.574C108.318 127.771 106.785 125.819 106.84 123.718C106.877 121.606 108.438 119.659 111.524 117.878C115.145 115.787 119.237 114.864 123.801 115.11L123.329 117.91C120.096 117.6 117.214 118.176 114.683 119.638C112.669 120.8 111.681 122.096 111.718 123.526C111.755 124.955 112.845 126.288 114.988 127.526C117.149 128.774 119.487 129.419 121.999 129.462C124.53 129.494 126.794 128.934 128.789 127.782C131.338 126.31 132.345 124.651 131.81 122.806L136.659 122.534C137.084 125.147 135.477 127.504 131.837 129.606ZM152.575 117.633C149.508 119.403 146.072 120.321 142.266 120.385C138.441 120.438 135.005 119.585 131.957 117.825C128.964 116.097 127.476 114.129 127.495 111.921C127.513 109.713 129.093 107.702 132.234 105.889C135.301 104.118 138.746 103.206 142.571 103.153C146.413 103.089 149.868 103.942 152.935 105.713C155.91 107.43 157.378 109.398 157.341 111.617C157.305 113.814 155.716 115.819 152.575 117.633ZM149.471 115.841C151.503 114.667 152.529 113.339 152.547 111.857C152.566 110.353 151.513 108.987 149.388 107.761C147.3 106.555 144.963 105.942 142.377 105.921C139.772 105.889 137.425 106.475 135.338 107.681C133.324 108.843 132.317 110.182 132.317 111.697C132.317 113.19 133.379 114.55 135.504 115.777C137.573 116.971 139.901 117.579 142.487 117.601C145.074 117.622 147.402 117.035 149.471 115.841ZM174.6 95.5724C179.995 98.6871 179.912 101.85 174.351 105.06C168.79 108.271 163.312 108.319 157.917 105.204L146.056 98.3564L149.492 96.3724L160.578 102.772C162.573 103.924 164.411 104.538 166.092 104.612C167.774 104.687 169.473 104.228 171.192 103.236C172.91 102.244 173.704 101.263 173.575 100.292C173.464 99.311 172.411 98.2444 170.416 97.0924L159.331 90.6924L162.739 88.7244L174.6 95.5724ZM202.328 88.4918L198.199 90.8758L188.195 89.8678C188.121 89.9104 188.01 89.9851 187.862 90.0918C187.714 90.1771 187.594 90.2464 187.502 90.2998L183.594 92.5558L189.442 95.9318L186.061 97.8838L166.468 86.5718L174.366 82.0118C176.86 80.5718 179.354 79.8144 181.848 79.7398C184.324 79.6544 186.67 80.2518 188.887 81.5318C192.028 83.3451 192.758 85.3131 191.077 87.4358L202.328 88.4918ZM184.453 88.6998C186.061 87.7718 186.929 86.8758 187.058 86.0118C187.206 85.1371 186.67 84.3478 185.451 83.6438C182.791 82.1078 179.973 82.1984 176.999 83.9158L172.814 86.3318L180.684 90.8758L184.453 88.6998ZM212.518 83.0244C210.856 83.9844 209.285 84.7417 207.807 85.2964C206.329 85.8297 204.546 86.3257 202.459 86.7844L200.796 84.3524C204.398 83.6164 207.262 82.6351 209.387 81.4084C210.606 80.7044 211.308 80.0217 211.493 79.3604C211.696 78.6884 211.354 78.0964 210.468 77.5844C209.636 77.1044 208.676 76.9551 207.585 77.1364C206.495 77.3177 204.953 77.7817 202.957 78.5284C200.075 79.6377 197.618 80.2884 195.586 80.4804C193.554 80.6724 191.66 80.2617 189.905 79.2484C188.168 78.2457 187.401 77.0884 187.605 75.7764C187.789 74.4537 189.046 73.1204 191.373 71.7764C194.145 70.1764 197.082 69.067 200.186 68.4484L201.572 70.8804C198.801 71.4777 196.408 72.3577 194.394 73.5204C193.212 74.2031 192.547 74.8751 192.399 75.5364C192.27 76.187 192.565 76.7204 193.286 77.1364C194.099 77.6057 195.087 77.739 196.251 77.5364C197.415 77.3124 199.087 76.795 201.267 75.9844C202.597 75.4937 203.752 75.1151 204.731 74.8484C205.71 74.5604 206.745 74.3577 207.835 74.2404C208.925 74.1017 209.96 74.1337 210.939 74.3364C211.918 74.5177 212.869 74.8751 213.793 75.4084C215.77 76.5497 216.638 77.7657 216.398 79.0564C216.158 80.3471 214.865 81.6697 212.518 83.0244Z" fill="white"/>
</g>
<g filter="url(#filter1_d_12_18824)">
<path d="M249.601 61.9567C247.938 62.9167 246.368 63.6741 244.89 64.2287C243.412 64.7621 241.629 65.2581 239.542 65.7167L237.879 63.2847C241.481 62.5487 244.345 61.5674 246.47 60.3407C247.689 59.6367 248.391 58.9541 248.576 58.2927C248.779 57.6207 248.437 57.0287 247.551 56.5167C246.719 56.0367 245.758 55.8874 244.668 56.0687C243.578 56.2501 242.036 56.7141 240.04 57.4607C237.158 58.5701 234.701 59.2207 232.669 59.4127C230.636 59.6047 228.743 59.1941 226.988 58.1807C225.251 57.1781 224.484 56.0207 224.687 54.7087C224.872 53.3861 226.129 52.0527 228.456 50.7087C231.228 49.1087 234.165 47.9994 237.269 47.3807L238.655 49.8127C235.883 50.4101 233.491 51.2901 231.477 52.4527C230.295 53.1354 229.63 53.8074 229.482 54.4687C229.352 55.1194 229.648 55.6527 230.369 56.0687C231.181 56.5381 232.17 56.6714 233.334 56.4687C234.498 56.2447 236.17 55.7274 238.35 54.9167C239.68 54.4261 240.835 54.0474 241.814 53.7807C242.793 53.4927 243.828 53.2901 244.918 53.1727C246.008 53.0341 247.042 53.0661 248.022 53.2687C249.001 53.4501 249.952 53.8074 250.876 54.3407C252.853 55.4821 253.721 56.6981 253.481 57.9887C253.241 59.2794 251.948 60.6021 249.601 61.9567Z" fill="white"/>
</g>
<g filter="url(#filter2_d_12_18824)">
<path d="M238.524 67.7034L218.821 56.3274L203.939 64.9194L208.234 67.3994L218.405 61.5274L222.118 63.6714L213.555 68.6154L217.574 70.9354L226.137 65.9914L229.518 67.9434L218.987 74.0234L223.282 76.5034L238.524 67.7034Z" fill="#A3CEF1"/>
</g>
<g filter="url(#filter3_d_12_18824)">
<path d="M191.526 110.082L188.959 109.524L185.301 111.636L186.277 113.112L185.321 113.664L181.237 107.478L181.757 107.178L192.482 109.53L191.526 110.082ZM182.869 108.12L183.773 109.422L184.875 110.946L187.774 109.272L185.124 108.642L182.869 108.12ZM193.427 108.984L186.101 104.754L186.974 104.25L193.49 108.012L197.782 105.534L198.592 106.002L193.427 108.984ZM199.587 105.427L192.261 101.197L193.134 100.693L199.65 104.455L203.942 101.977L204.752 102.445L199.587 105.427Z" fill="white"/>
<path d="M138.718 136.682L254.818 69.6515L255.265 69.9095L139.165 136.94L138.718 136.682Z" fill="white"/>
</g>
<path d="M32.5675 198.114L32.5675 199.966L25.8084 196.063L25.8084 194.212L32.5675 198.114ZM34.2522 199.087L34.2522 216.149L32.2935 215.019L32.2935 197.956L34.2522 199.087ZM25.1386 193.825L27.0872 194.95L26.7523 203.112C26.7049 204.288 26.6237 205.315 26.5087 206.194C26.4004 207.069 26.2448 207.796 26.0419 208.374C25.8389 208.944 25.575 209.362 25.2503 209.628C24.9255 209.886 24.5263 209.987 24.0527 209.933C23.5859 209.882 23.0243 209.667 22.368 209.288L21.8403 208.983L21.8403 207.144L22.2462 207.343C22.6251 207.53 22.9499 207.62 23.2205 207.612C23.4979 207.601 23.7313 207.478 23.9208 207.243C24.117 207.013 24.276 206.659 24.3978 206.183C24.5195 205.706 24.6143 205.093 24.6819 204.343C24.7563 203.589 24.8139 202.692 24.8544 201.653L25.1386 193.825ZM40.585 218.493L43.6398 208.89L45.6492 210.05L41.2447 222.144C41.1432 222.397 41.0079 222.655 40.8387 222.917C40.6763 223.19 40.4666 223.417 40.2095 223.597C39.9524 223.776 39.6412 223.862 39.2758 223.854C38.9172 223.858 38.4876 223.716 37.9869 223.427C37.8381 223.341 37.6486 223.208 37.4186 223.028C37.1885 222.849 37.0262 222.716 36.9314 222.63L36.9213 220.866C36.9754 220.905 37.06 220.962 37.175 221.036C37.2968 221.122 37.3814 221.179 37.4287 221.206C37.855 221.452 38.217 221.595 38.5146 221.634C38.8123 221.681 39.0627 221.61 39.2657 221.423C39.4754 221.247 39.6547 220.94 39.8035 220.503L40.585 218.493ZM38.3421 205.831L41.1939 217.321L41.6811 219.888L40.3313 219.905L36.2921 204.647L38.3421 205.831ZM55.6254 215.81L55.6254 228.489L53.7479 227.405L53.7479 214.726L55.6254 215.81ZM54.986 221.265L54.986 223.046C54.6072 222.991 54.2215 222.917 53.8291 222.823C53.4434 222.726 53.0341 222.591 52.6011 222.419C52.1748 222.243 51.7114 222.011 51.2107 221.722C50.3447 221.222 49.5937 220.616 48.9577 219.905C48.3217 219.187 47.8312 218.376 47.4861 217.474C47.1411 216.563 46.9685 215.569 46.9685 214.491L46.9685 210.788L48.8461 211.872L48.8461 215.575C48.8461 216.278 48.9374 216.901 49.1201 217.444C49.3028 217.987 49.57 218.466 49.9218 218.88C50.2736 219.286 50.7033 219.636 51.2107 219.929C51.6979 220.21 52.1545 220.438 52.5808 220.614C53.0138 220.786 53.4265 220.923 53.8189 221.024C54.2181 221.13 54.6072 221.21 54.986 221.265ZM58.8121 217.649L60.6896 218.733L60.6896 229.632L64.7085 231.952L64.7085 221.054L66.5962 222.144L66.5962 233.042L70.6049 235.356L70.6049 224.458L72.4825 225.542L72.4825 238.222L58.8121 230.329L58.8121 217.649ZM77.5061 237.688L82.5703 231.366L84.458 232.456L84.458 245.136L82.5703 244.046L82.5703 234.8L77.5061 241.122L75.6387 240.044L75.6387 227.364L77.5061 228.442L77.5061 237.688ZM92.0289 249.741C91.2644 249.3 90.5709 248.751 89.9484 248.095C89.3327 247.435 88.8016 246.702 88.3551 245.897C87.9153 245.097 87.577 244.253 87.3402 243.366C87.1034 242.479 86.985 241.591 86.985 240.7L86.985 240.208C86.985 239.177 87.1169 238.335 87.3808 237.683C87.6447 237.022 88.0033 236.542 88.4566 236.241C88.9099 235.94 89.4241 235.812 89.9992 235.854C90.5743 235.897 91.1697 236.097 91.7854 236.452C92.5702 236.905 93.2468 237.452 93.8151 238.093C94.3902 238.737 94.8604 239.446 95.2258 240.22C95.5911 240.985 95.8618 241.798 96.0377 242.657C96.2136 243.509 96.3015 244.38 96.3015 245.27L96.3015 246.243L88.1014 241.509L88.1014 239.739L94.424 243.39L94.424 243.226C94.397 242.647 94.2955 242.042 94.1196 241.409C93.9504 240.78 93.6798 240.187 93.3077 239.628C92.9355 239.069 92.4281 238.604 91.7854 238.233C91.3591 237.987 90.9667 237.866 90.6081 237.87C90.2495 237.866 89.9417 237.993 89.6846 238.251C89.4275 238.509 89.2279 238.89 89.0858 239.394C88.9437 239.897 88.8727 240.532 88.8727 241.298L88.8727 241.79C88.8727 242.392 88.9437 242.999 89.0858 243.612C89.2346 244.222 89.4478 244.806 89.7252 245.364C90.0093 245.927 90.351 246.437 90.7502 246.894C91.1561 247.354 91.6162 247.733 92.1304 248.03C92.7935 248.413 93.355 248.581 93.8151 248.534C94.2752 248.487 94.6777 248.302 95.0228 247.978L96.1595 249.677C95.9227 249.954 95.6216 250.175 95.2562 250.339C94.8909 250.503 94.4409 250.548 93.9064 250.474C93.3787 250.403 92.7529 250.159 92.0289 249.741ZM105.689 244.714L105.689 257.394L103.812 256.31L103.812 243.63L105.689 244.714ZM112.895 248.874L107.688 253.134L105.06 251.616L104.776 249.554L106.927 250.796L110.611 247.556L112.895 248.874ZM110.875 260.388L106.836 252.313L108.044 251.44L113.26 261.765L110.875 260.388ZM117.979 263.177L121.034 253.573L123.043 254.733L118.639 266.827C118.537 267.081 118.402 267.339 118.233 267.601C118.071 267.874 117.861 268.101 117.604 268.28C117.347 268.46 117.035 268.546 116.67 268.538C116.311 268.542 115.882 268.399 115.381 268.11C115.232 268.024 115.043 267.892 114.813 267.712C114.583 267.532 114.42 267.399 114.326 267.313L114.316 265.55C114.37 265.589 114.454 265.645 114.569 265.72C114.691 265.806 114.776 265.862 114.823 265.89C115.249 266.136 115.611 266.278 115.909 266.317C116.207 266.364 116.457 266.294 116.66 266.106C116.87 265.931 117.049 265.624 117.198 265.187L117.979 263.177ZM115.736 250.515L118.588 262.005L119.075 264.571L117.726 264.589L113.686 249.331L115.736 250.515ZM126.616 259.233L126.616 274.351L124.728 273.261L124.728 255.706L126.453 256.702L126.616 259.233ZM134.014 267.302L134.014 267.548C134.014 268.47 133.92 269.27 133.73 269.95C133.541 270.622 133.263 271.142 132.898 271.509C132.539 271.88 132.096 272.073 131.568 272.089C131.041 272.104 130.435 271.915 129.752 271.52C129.055 271.118 128.439 270.63 127.905 270.056C127.37 269.481 126.917 268.833 126.545 268.11C126.173 267.388 125.875 266.606 125.652 265.767C125.435 264.931 125.286 264.044 125.205 263.106L125.205 261.794C125.286 260.903 125.439 260.151 125.662 259.538C125.885 258.925 126.179 258.462 126.545 258.149C126.917 257.833 127.367 257.69 127.895 257.722C128.422 257.745 129.031 257.956 129.721 258.354C130.411 258.753 131.024 259.263 131.558 259.884C132.093 260.497 132.543 261.194 132.908 261.976C133.273 262.757 133.547 263.599 133.73 264.501C133.92 265.399 134.014 266.333 134.014 267.302ZM132.127 266.458L132.127 266.212C132.127 265.579 132.069 264.952 131.954 264.331C131.839 263.702 131.66 263.106 131.416 262.544C131.179 261.978 130.875 261.466 130.503 261.009C130.131 260.544 129.687 260.163 129.173 259.866C128.7 259.593 128.287 259.448 127.935 259.433C127.59 259.421 127.296 259.505 127.052 259.685C126.809 259.856 126.609 260.101 126.453 260.417C126.305 260.729 126.193 261.079 126.119 261.466L126.119 264.501C126.254 265.126 126.443 265.751 126.687 266.376C126.93 266.993 127.255 267.567 127.661 268.099C128.067 268.622 128.578 269.062 129.194 269.417C129.701 269.71 130.137 269.841 130.503 269.81C130.875 269.774 131.179 269.61 131.416 269.317C131.66 269.028 131.839 268.64 131.954 268.151C132.069 267.655 132.127 267.091 132.127 266.458ZM140.804 276.12C141.25 276.378 141.663 276.511 142.042 276.519C142.421 276.526 142.732 276.417 142.976 276.19C143.219 275.956 143.358 275.61 143.392 275.153L145.178 276.185C145.144 276.915 144.924 277.487 144.518 277.901C144.119 278.312 143.595 278.528 142.945 278.552C142.296 278.567 141.582 278.351 140.804 277.901C139.978 277.425 139.258 276.841 138.642 276.149C138.033 275.462 137.526 274.708 137.12 273.888C136.721 273.071 136.419 272.226 136.217 271.351C136.02 270.472 135.922 269.606 135.922 268.755L135.922 268.263C135.922 267.411 136.02 266.663 136.217 266.019C136.419 265.37 136.721 264.868 137.12 264.513C137.526 264.161 138.033 263.993 138.642 264.009C139.258 264.028 139.978 264.276 140.804 264.753C141.663 265.249 142.414 265.886 143.057 266.663C143.7 267.433 144.204 268.27 144.569 269.177C144.941 270.079 145.144 270.978 145.178 271.872L143.392 270.841C143.358 270.298 143.229 269.751 143.006 269.2C142.79 268.653 142.492 268.145 142.113 267.677C141.741 267.204 141.304 266.823 140.804 266.534C140.229 266.202 139.745 266.056 139.352 266.095C138.967 266.13 138.659 266.304 138.429 266.616C138.206 266.925 138.043 267.319 137.942 267.8C137.847 268.276 137.8 268.792 137.8 269.347L137.8 269.839C137.8 270.394 137.847 270.968 137.942 271.562C138.037 272.155 138.196 272.735 138.419 273.302C138.649 273.872 138.957 274.401 139.342 274.89C139.735 275.374 140.222 275.784 140.804 276.12ZM148.831 273.981L152.13 275.886C153.016 276.397 153.764 277.009 154.373 277.72C154.982 278.423 155.442 279.177 155.753 279.981C156.071 280.782 156.23 281.577 156.23 282.366C156.23 282.952 156.142 283.452 155.966 283.866C155.79 284.272 155.526 284.565 155.174 284.745C154.829 284.929 154.4 284.981 153.885 284.903C153.378 284.821 152.793 284.589 152.13 284.206L147.461 281.511L147.461 268.831L149.339 269.915L149.339 280.813L152.13 282.425C152.671 282.737 153.104 282.874 153.429 282.835C153.754 282.796 153.987 282.638 154.129 282.36C154.271 282.083 154.342 281.749 154.342 281.358C154.342 280.976 154.271 280.56 154.129 280.11C153.987 279.661 153.754 279.222 153.429 278.792C153.104 278.354 152.671 277.979 152.13 277.667L148.831 275.763L148.831 273.981ZM160.137 276.149L160.137 288.829L158.26 287.745L158.26 275.065L160.137 276.149Z" fill="white"/>
<path d="M241.252 265.032L241.252 264.763C241.252 263.849 241.367 262.935 241.597 262.021C241.827 261.099 242.159 260.224 242.592 259.396C243.025 258.56 243.549 257.804 244.165 257.128C244.78 256.444 245.471 255.882 246.235 255.441C247.006 254.995 247.7 254.759 248.316 254.732C248.938 254.693 249.466 254.841 249.899 255.177C250.339 255.501 250.673 255.991 250.904 256.648C251.134 257.296 251.249 258.077 251.249 258.991L251.249 259.261C251.249 260.175 251.134 261.089 250.904 262.003C250.673 262.917 250.339 263.794 249.899 264.634C249.466 265.462 248.941 266.218 248.326 266.902C247.717 267.573 247.027 268.132 246.255 268.577C245.484 269.023 244.791 269.263 244.175 269.298C243.559 269.325 243.032 269.177 242.592 268.853C242.159 268.517 241.827 268.025 241.597 267.376C241.367 266.728 241.252 265.946 241.252 265.032ZM243.13 263.679L243.13 263.948C243.13 264.581 243.194 265.142 243.322 265.63C243.451 266.111 243.644 266.491 243.901 266.773C244.165 267.05 244.493 267.2 244.885 267.224C245.278 267.239 245.734 267.097 246.255 266.796C246.77 266.499 247.22 266.118 247.605 265.653C247.998 265.177 248.322 264.65 248.579 264.071C248.837 263.493 249.029 262.89 249.158 262.261C249.293 261.62 249.361 260.984 249.361 260.351L249.361 260.081C249.361 259.456 249.293 258.905 249.158 258.429C249.029 257.941 248.833 257.558 248.569 257.28C248.312 256.991 247.987 256.835 247.595 256.812C247.209 256.784 246.756 256.921 246.235 257.222C245.721 257.519 245.268 257.905 244.875 258.382C244.49 258.855 244.165 259.386 243.901 259.976C243.644 260.554 243.451 261.161 243.322 261.798C243.194 262.427 243.13 263.054 243.13 263.679ZM261.052 252.616L261.052 254.374L255.247 257.726L255.247 255.968L261.052 252.616ZM255.643 250.243L255.643 262.923L253.765 264.007L253.765 251.327L255.643 250.243ZM262.575 246.241L262.575 258.921L260.687 260.011L260.687 247.331L262.575 246.241ZM272.936 240.259L272.936 242.052L267.629 245.116L267.629 243.323L272.936 240.259ZM274.591 239.304L274.591 251.984L272.713 253.068L272.713 240.388L274.591 239.304ZM267.172 243.587L269.06 242.497L268.775 248.778C268.728 249.751 268.65 250.632 268.542 251.421C268.441 252.198 268.298 252.898 268.116 253.519C267.94 254.136 267.717 254.687 267.446 255.171C267.182 255.644 266.864 256.066 266.492 256.437C266.12 256.8 265.69 257.122 265.203 257.403L264.614 257.743L264.614 255.833L265.02 255.564C265.311 255.372 265.558 255.152 265.761 254.902C265.971 254.648 266.147 254.351 266.289 254.011C266.431 253.663 266.546 253.257 266.634 252.792C266.729 252.323 266.8 251.79 266.847 251.193C266.901 250.591 266.942 249.903 266.969 249.13L267.172 243.587ZM284.09 244.331L284.09 237.804C284.09 237.304 284.002 236.921 283.826 236.655C283.657 236.378 283.4 236.237 283.055 236.234C282.71 236.23 282.283 236.374 281.776 236.667C281.302 236.941 280.886 237.275 280.528 237.669C280.176 238.06 279.898 238.466 279.695 238.888C279.499 239.306 279.401 239.691 279.401 240.042L277.524 241.126C277.524 240.673 277.625 240.165 277.828 239.603C278.031 239.04 278.322 238.47 278.701 237.892C279.087 237.302 279.547 236.747 280.081 236.228C280.622 235.696 281.225 235.239 281.888 234.857C282.686 234.396 283.39 234.146 283.999 234.107C284.614 234.064 285.095 234.259 285.44 234.693C285.792 235.114 285.967 235.798 285.967 236.743L285.967 242.65C285.967 243.071 285.998 243.503 286.059 243.944C286.126 244.382 286.225 244.736 286.353 245.005L286.353 245.193L284.394 246.323C284.3 246.128 284.225 245.839 284.171 245.456C284.117 245.066 284.09 244.691 284.09 244.331ZM284.415 238.624L284.435 240.136L282.537 241.232C282.003 241.54 281.526 241.866 281.106 242.21C280.687 242.546 280.335 242.894 280.051 243.253C279.767 243.612 279.55 243.984 279.401 244.366C279.252 244.741 279.178 245.124 279.178 245.515C279.178 245.913 279.256 246.232 279.411 246.47C279.567 246.708 279.8 246.835 280.112 246.851C280.43 246.855 280.819 246.724 281.279 246.458C281.854 246.126 282.361 245.693 282.801 245.157C283.241 244.622 283.589 244.077 283.846 243.523C284.11 242.964 284.252 242.487 284.273 242.093L285.074 242.673C285.027 243.028 284.898 243.466 284.689 243.986C284.479 244.505 284.198 245.05 283.846 245.62C283.501 246.179 283.089 246.718 282.608 247.237C282.135 247.745 281.6 248.171 281.005 248.515C280.26 248.944 279.608 249.153 279.046 249.142C278.491 249.126 278.058 248.927 277.747 248.544C277.442 248.15 277.29 247.601 277.29 246.898C277.29 246.218 277.405 245.554 277.635 244.905C277.865 244.249 278.197 243.624 278.63 243.03C279.063 242.429 279.584 241.862 280.193 241.331C280.802 240.8 281.482 240.318 282.233 239.884L284.415 238.624ZM290.95 239.105L296.015 226.935L297.902 225.845L297.902 238.525L296.015 239.614L296.015 230.368L290.95 242.538L289.083 243.616L289.083 230.937L290.95 229.859L290.95 239.105ZM294.99 222.933L296.512 222.054C296.512 222.663 296.39 223.277 296.147 223.894C295.903 224.503 295.555 225.071 295.101 225.599C294.648 226.126 294.11 226.569 293.488 226.929C292.547 227.472 291.803 227.612 291.255 227.351C290.714 227.077 290.443 226.48 290.443 225.558L291.965 224.679C291.965 225.14 292.08 225.48 292.31 225.698C292.54 225.917 292.933 225.866 293.488 225.546C294.029 225.234 294.415 224.835 294.645 224.351C294.875 223.866 294.99 223.394 294.99 222.933ZM308.366 225.3L308.366 227.058L302.561 230.409L302.561 228.652L308.366 225.3ZM302.956 222.927L302.956 235.607L301.079 236.691L301.079 224.011L302.956 222.927ZM309.888 218.925L309.888 231.605L308 232.694L308 220.015L309.888 218.925ZM312.943 228.693C312.943 228.325 313.041 227.96 313.237 227.597C313.44 227.222 313.731 226.925 314.11 226.706C314.489 226.487 314.776 226.45 314.973 226.595C315.175 226.728 315.277 226.978 315.277 227.345C315.277 227.704 315.175 228.068 314.973 228.435C314.776 228.798 314.489 229.089 314.11 229.308C313.731 229.527 313.44 229.569 313.237 229.437C313.041 229.3 312.943 229.052 312.943 228.693Z" fill="white"/>
<defs>
<filter id="filter0_d_12_18824" x="97.3257" y="67.1044" width="126.426" height="76.3732" filterUnits="userSpaceOnUse" color-interpolation-filters="sRGB">
<feFlood flood-opacity="0" result="BackgroundImageFix"/>
<feColorMatrix in="SourceAlpha" type="matrix" values="0 0 0 0 0 0 0 0 0 0 0 0 0 0 0 0 0 0 127 0" result="hardAlpha"/>
<feOffset dy="4"/>
<feGaussianBlur stdDeviation="2"/>
<feComposite in2="hardAlpha" operator="out"/>
<feColorMatrix type="matrix" values="0 0 0 0 0 0 0 0 0 0 0 0 0 0 0 0 0 0 0.25 0"/>
<feBlend mode="normal" in2="BackgroundImageFix" result="effect1_dropShadow_12_18824"/>
<feBlend mode="normal" in="SourceGraphic" in2="effect1_dropShadow_12_18824" result="shape"/>
</filter>
<filter id="filter1_d_12_18824" x="217.001" y="46.0527" width="43.833" height="28.688" filterUnits="userSpaceOnUse" color-interpolation-filters="sRGB">
<feFlood flood-opacity="0" result="BackgroundImageFix"/>
<feColorMatrix in="SourceAlpha" type="matrix" values="0 0 0 0 0 0 0 0 0 0 0 0 0 0 0 0 0 0 127 0" result="hardAlpha"/>
<feOffset dy="4"/>
<feGaussianBlur stdDeviation="2"/>
<feComposite in2="hardAlpha" operator="out"/>
<feColorMatrix type="matrix" values="0 0 0 0 0 0 0 0 0 0 0 0 0 0 0 0 0 0 0.25 0"/>
<feBlend mode="normal" in2="BackgroundImageFix" result="effect1_dropShadow_12_18824"/>
<feBlend mode="normal" in="SourceGraphic" in2="effect1_dropShadow_12_18824" result="shape"/>
</filter>
<filter id="filter2_d_12_18824" x="199.579" y="56.3274" width="42.9458" height="28.176" filterUnits="userSpaceOnUse" color-interpolation-filters="sRGB">
<feFlood flood-opacity="0" result="BackgroundImageFix"/>
<feColorMatrix in="SourceAlpha" type="matrix" values="0 0 0 0 0 0 0 0 0 0 0 0 0 0 0 0 0 0 127 0" result="hardAlpha"/>
<feOffset dy="4"/>
<feGaussianBlur stdDeviation="2"/>
<feComposite in2="hardAlpha" operator="out"/>
<feColorMatrix type="matrix" values="0 0 0 0 0 0 0 0 0 0 0 0 0 0 0 0 0 0 0.25 0"/>
<feBlend mode="normal" in2="BackgroundImageFix" result="effect1_dropShadow_12_18824"/>
<feBlend mode="normal" in="SourceGraphic" in2="effect1_dropShadow_12_18824" result="shape"/>
</filter>
<filter id="filter3_d_12_18824" x="130.686" y="64.1486" width="137.113" height="82.5433" filterUnits="userSpaceOnUse" color-interpolation-filters="sRGB">
<feFlood flood-opacity="0" result="BackgroundImageFix"/>
<feColorMatrix in="SourceAlpha" type="matrix" values="0 0 0 0 0 0 0 0 0 0 0 0 0 0 0 0 0 0 127 0" result="hardAlpha"/>
<feOffset dy="4"/>
<feGaussianBlur stdDeviation="2"/>
<feComposite in2="hardAlpha" operator="out"/>
<feColorMatrix type="matrix" values="0 0 0 0 0 0 0 0 0 0 0 0 0 0 0 0 0 0 0.25 0"/>
<feBlend mode="normal" in2="BackgroundImageFix" result="effect1_dropShadow_12_18824"/>
<feBlend mode="normal" in="SourceGraphic" in2="effect1_dropShadow_12_18824" result="shape"/>
</filter>
</defs>
</svg>
