<svg width="640" height="238" viewBox="0 0 640 238" fill="none" xmlns="http://www.w3.org/2000/svg">
<path d="M52.48 156.664C38.3147 156.664 26.9227 152.397 18.304 143.864C9.77067 135.331 5.504 123.853 5.504 109.432C5.504 95.0107 9.77067 83.6613 18.304 75.384C26.8373 67.0213 38.2293 62.84 52.48 62.84C69.2053 62.84 82.3467 68.6 91.904 80.12L79.616 90.232C73.3867 81.528 64.4267 77.176 52.736 77.176C43.4347 77.176 35.968 80.0773 30.336 85.88C24.704 91.6827 21.888 99.5333 21.888 109.432C21.888 119.416 24.704 127.395 30.336 133.368C36.0533 139.341 43.52 142.328 52.736 142.328C64.512 142.328 73.472 138.019 79.616 129.4L91.904 139.512C82.432 150.947 69.2907 156.664 52.48 156.664ZM148.263 156.664C134.098 156.664 122.492 152.397 113.447 143.864C104.402 135.245 99.879 123.896 99.879 109.816C99.879 95.992 104.316 84.6853 113.191 75.896C122.066 67.1067 133.756 62.712 148.263 62.712C162.428 62.712 174.034 67.0213 183.079 75.64C192.21 84.2587 196.775 95.6507 196.775 109.816C196.775 123.555 192.295 134.819 183.335 143.608C174.46 152.312 162.77 156.664 148.263 156.664ZM148.263 142.328C157.65 142.328 165.33 139.384 171.303 133.496C177.362 127.523 180.391 119.629 180.391 109.816C180.391 100.173 177.447 92.3227 171.559 86.264C165.671 80.12 157.906 77.048 148.263 77.048C138.962 77.048 131.282 80.0773 125.223 86.136C119.25 92.1093 116.263 100.003 116.263 109.816C116.263 119.373 119.207 127.181 125.095 133.24C130.983 139.299 138.706 142.328 148.263 142.328ZM287.37 119.288C287.37 144.205 274.527 156.664 248.842 156.664C223.157 156.664 210.314 144.205 210.314 119.288V64.504H226.186V115.704C226.186 124.92 227.978 131.619 231.562 135.8C235.146 139.981 240.906 142.072 248.842 142.072C256.778 142.072 262.538 139.981 266.122 135.8C269.791 131.619 271.626 124.92 271.626 115.704V64.504H287.37V119.288ZM379.727 155H360.655L341.583 127.864C341.242 127.864 340.687 127.907 339.919 127.992C339.236 127.992 338.682 127.992 338.255 127.992H320.207V155H304.591V64.504H341.071C352.591 64.504 361.38 67.2347 367.439 72.696C373.498 78.072 376.527 85.88 376.527 96.12C376.527 110.627 370.34 120.184 357.967 124.792L379.727 155ZM337.615 114.552C345.039 114.552 350.628 112.973 354.383 109.816C358.223 106.659 360.143 102.264 360.143 96.632C360.143 84.344 353.274 78.2 339.535 78.2H320.207V114.552H337.615ZM425.13 156.664C417.45 156.664 410.794 156.067 405.162 154.872C399.615 153.592 393.514 151.459 386.858 148.472L392.746 134.904C404.01 140.28 414.549 142.968 424.362 142.968C429.994 142.968 434.346 141.859 437.418 139.64C440.575 137.421 442.154 134.264 442.154 130.168C442.154 126.328 440.533 123.512 437.29 121.72C434.047 119.928 428.629 118.221 421.034 116.6C409.941 114.381 401.663 111.309 396.202 107.384C390.741 103.459 388.01 97.4427 388.01 89.336C388.01 81.3147 390.869 74.9147 396.586 70.136C402.303 65.272 410.538 62.84 421.29 62.84C434.09 62.84 445.311 65.1867 454.954 69.88L448.426 82.808C439.637 78.7973 430.591 76.792 421.29 76.792C415.829 76.792 411.605 77.944 408.618 80.248C405.717 82.552 404.266 85.368 404.266 88.696C404.266 92.4507 406.015 95.2667 409.514 97.144C413.098 98.936 419.029 100.728 427.306 102.52C432.341 103.629 436.522 104.781 439.85 105.976C443.263 107.085 446.463 108.664 449.45 110.712C452.522 112.675 454.783 115.192 456.234 118.264C457.77 121.251 458.538 124.877 458.538 129.144C458.538 138.275 455.679 145.144 449.962 149.752C444.245 154.36 435.967 156.664 425.13 156.664Z" fill="#459DD8"/>
<path d="M582.88 156.664C575.2 156.664 568.544 156.067 562.912 154.872C557.365 153.592 551.264 151.459 544.608 148.472L550.496 134.904C561.76 140.28 572.299 142.968 582.112 142.968C587.744 142.968 592.096 141.859 595.168 139.64C598.325 137.421 599.904 134.264 599.904 130.168C599.904 126.328 598.283 123.512 595.04 121.72C591.797 119.928 586.379 118.221 578.784 116.6C567.691 114.381 559.413 111.309 553.952 107.384C548.491 103.459 545.76 97.4427 545.76 89.336C545.76 81.3147 548.619 74.9147 554.336 70.136C560.053 65.272 568.288 62.84 579.04 62.84C591.84 62.84 603.061 65.1867 612.704 69.88L606.176 82.808C597.387 78.7973 588.341 76.792 579.04 76.792C573.579 76.792 569.355 77.944 566.368 80.248C563.467 82.552 562.016 85.368 562.016 88.696C562.016 92.4507 563.765 95.2667 567.264 97.144C570.848 98.936 576.779 100.728 585.056 102.52C590.091 103.629 594.272 104.781 597.6 105.976C601.013 107.085 604.213 108.664 607.2 110.712C610.272 112.675 612.533 115.192 613.984 118.264C615.52 121.251 616.288 124.877 616.288 129.144C616.288 138.275 613.429 145.144 607.712 149.752C601.995 154.36 593.717 156.664 582.88 156.664Z" fill="#4392C7"/>
<path d="M537.32 155V63.992H468.584V83.832H515.56V100.984H476.008V119.544H515.56V135.16H466.92V155H537.32Z" fill="#FFCB3A"/>
<path d="M284.772 213L281.692 206.2H267.612L264.572 213H260.892L273.652 184.52H275.652L288.452 213H284.772ZM274.652 189.8L272.052 195.88L269.092 203.08H280.252L277.252 195.88L274.652 189.8ZM292.092 213V184.8H295.452V209.88H311.972V213H292.092ZM315.803 213V184.8H319.163V209.88H335.683V213H315.803Z" fill="#2B5688"/>
<path d="M94.4766 200.04H541.346V201.76H94.4766V200.04Z" fill="#2B5688"/>
</svg>
