<svg width="279" height="104" viewBox="0 0 279 104" fill="none" xmlns="http://www.w3.org/2000/svg">
<path d="M22.878 68.4582C16.7028 68.4582 11.7366 66.5936 7.97941 62.8649C4.25942 59.1362 2.39941 54.1206 2.39941 47.819C2.39941 41.5173 4.25942 36.5579 7.97941 32.9409C11.6994 29.2866 16.6656 27.4595 22.878 27.4595C30.1692 27.4595 35.898 29.9765 40.0644 35.0104L34.7076 39.4291C31.992 35.6257 28.086 33.724 22.9896 33.724C18.9348 33.724 15.6798 34.9918 13.2246 37.5274C10.7694 40.063 9.54181 43.4935 9.54181 47.819C9.54181 52.1818 10.7694 55.6684 13.2246 58.2785C15.717 60.8885 18.972 62.1937 22.9896 62.1937C28.1232 62.1937 32.0292 60.3108 34.7076 56.5445L40.0644 60.9632C35.9352 65.96 30.2064 68.4582 22.878 68.4582ZM64.6334 68.4582C58.4584 68.4582 53.3989 66.5936 49.4558 62.8649C45.5128 59.0987 43.541 54.1394 43.541 47.9868C43.541 41.9461 45.4753 37.0053 49.3442 33.1646C53.2132 29.3239 58.3093 27.4036 64.6334 27.4036C70.8085 27.4036 75.868 29.2866 79.811 33.0528C83.7916 36.8189 85.7816 41.7969 85.7816 47.9868C85.7816 53.9904 83.8286 58.9125 79.9226 62.7531C76.0537 66.5565 70.9576 68.4582 64.6334 68.4582ZM64.6334 62.1937C68.7256 62.1937 72.0736 60.9073 74.6774 58.3344C77.3188 55.7243 78.6392 52.2749 78.6392 47.9868C78.6392 43.7731 77.3558 40.3427 74.789 37.6952C72.2222 35.0104 68.8372 33.668 64.6334 33.668C60.5788 33.668 57.2308 34.9918 54.5894 37.6393C51.9856 40.2494 50.6834 43.6988 50.6834 47.9868C50.6834 52.163 51.9668 55.5749 54.5336 58.2225C57.1004 60.8702 60.4672 62.1937 64.6334 62.1937ZM125.275 52.1259C125.275 63.014 119.677 68.4582 108.48 68.4582C97.2825 68.4582 91.6838 63.014 91.6838 52.1259V28.1866H98.603V50.5597C98.603 54.5869 99.3842 57.5142 100.947 59.3412C102.509 61.1682 105.02 62.0819 108.48 62.0819C111.939 62.0819 114.45 61.1682 116.013 59.3412C117.612 57.5142 118.412 54.5869 118.412 50.5597V28.1866H125.275V52.1259ZM165.537 67.7311H157.223L148.909 55.8733C148.76 55.8733 148.518 55.8921 148.183 55.9293C147.886 55.9293 147.644 55.9293 147.458 55.9293H139.59V67.7311H132.783V28.1866H148.686C153.708 28.1866 157.539 29.3799 160.18 31.7663C162.822 34.1155 164.142 37.5274 164.142 42.002C164.142 48.3412 161.445 52.5174 156.051 54.531L165.537 67.7311ZM147.179 50.0563C150.415 50.0563 152.852 49.3664 154.489 47.9868C156.163 46.6073 157 44.6868 157 42.2257C157 36.8562 154.005 34.1714 148.016 34.1714H139.59V50.0563H147.179ZM185.33 68.4582C181.982 68.4582 179.081 68.1973 176.625 67.6752C174.207 67.1158 171.548 66.1838 168.646 64.8785L171.213 58.9496C176.123 61.2988 180.717 62.4734 184.995 62.4734C187.451 62.4734 189.348 61.9888 190.687 61.0192C192.063 60.0495 192.752 58.67 192.752 56.8801C192.752 55.2022 192.045 53.9716 190.631 53.1886C189.217 52.4055 186.855 51.6596 183.545 50.9513C178.709 49.9816 175.1 48.6392 172.719 46.9241C170.339 45.209 169.148 42.58 169.148 39.0376C169.148 35.5325 170.394 32.7358 172.887 30.6477C175.379 28.5222 178.969 27.4595 183.656 27.4595C189.236 27.4595 194.128 28.4849 198.332 30.5358L195.486 36.185C191.654 34.4324 187.711 33.5562 183.656 33.5562C181.275 33.5562 179.434 34.0596 178.132 35.0664C176.867 36.0731 176.235 37.3037 176.235 38.7579C176.235 40.3986 176.997 41.6291 178.523 42.4495C180.085 43.2325 182.67 44.0156 186.279 44.7987C188.474 45.2833 190.296 45.7867 191.747 46.3088C193.235 46.7934 194.63 47.4834 195.932 48.3784C197.271 49.2361 198.257 50.336 198.89 51.6784C199.559 52.9836 199.894 54.5681 199.894 56.4327C199.894 60.4227 198.648 63.4243 196.155 65.4378C193.663 67.4514 190.054 68.4582 185.33 68.4582Z" fill="white"/>
<path d="M254.099 68.4582C250.751 68.4582 247.85 68.1973 245.394 67.6751C242.976 67.1158 240.317 66.1837 237.415 64.8785L239.982 58.9496C244.892 61.2988 249.487 62.4734 253.764 62.4734C256.22 62.4734 258.117 61.9888 259.456 61.0191C260.832 60.0495 261.521 58.67 261.521 56.8801C261.521 55.2021 260.814 53.9716 259.4 53.1885C257.986 52.4055 255.625 51.6596 252.314 50.9512C247.478 49.9816 243.869 48.6392 241.488 46.9241C239.108 45.209 237.917 42.58 237.917 39.0376C237.917 35.5324 239.164 32.7358 241.656 30.6476C244.148 28.5222 247.738 27.4595 252.425 27.4595C258.005 27.4595 262.897 28.4849 267.101 30.5358L264.255 36.185C260.423 34.4324 256.48 33.5561 252.425 33.5561C250.045 33.5561 248.203 34.0595 246.901 35.0663C245.636 36.0731 245.004 37.3036 245.004 38.7579C245.004 40.3986 245.766 41.6291 247.292 42.4495C248.854 43.2325 251.44 44.0156 255.048 44.7986C257.243 45.2832 259.065 45.7866 260.516 46.3088C262.004 46.7934 263.399 47.4834 264.701 48.3783C266.04 49.2361 267.026 50.336 267.659 51.6784C268.328 52.9836 268.663 54.5681 268.663 56.4326C268.663 60.4227 267.417 63.4242 264.924 65.4378C262.432 67.4514 258.824 68.4582 254.099 68.4582Z" fill="white"/>
<path d="M234.238 67.7311V27.9629H204.273V36.6325H224.752V44.1275H207.51V52.2377H224.752V59.0615H203.548V67.7311H234.238Z" fill="#FFCB3A"/>
<path d="M124.143 93.0757L122.8 90.1042H116.662L115.337 93.0757H113.732L119.295 80.6306H120.167L125.747 93.0757H124.143ZM119.731 82.9378L118.597 85.5946L117.307 88.7409H122.172L120.864 85.5946L119.731 82.9378ZM127.334 93.0757V80.753H128.798V91.7123H136V93.0757H127.334ZM137.67 93.0757V80.753H139.135V91.7123H146.337V93.0757H137.67Z" fill="white"/>
<path d="M41.186 87.4125H235.993V88.1641H41.186V87.4125Z" fill="white"/>
</svg>
