<svg width="28" height="28" viewBox="0 0 28 28" fill="none" xmlns="http://www.w3.org/2000/svg">
<g clip-path="url(#clip0_229_49)">
<path d="M21.2245 9.72431C20.8828 9.3826 20.8828 8.82858 21.2245 8.48687C21.5662 8.14516 22.1202 8.14516 22.4619 8.48687L27.4117 13.4366C27.7534 13.7783 27.7534 14.3323 27.4117 14.6741L22.4619 19.6238C22.1202 19.9655 21.5662 19.9655 21.2245 19.6238C20.8828 19.2821 20.8828 18.7281 21.2245 18.3864L24.7427 14.8682H5.28328C4.80026 14.8682 4.4054 14.4764 4.4054 13.9932C4.4054 13.5065 4.79844 13.1182 5.28328 13.1182H24.6183L21.2245 9.72431Z" fill="#173E56"/>
<path d="M15.75 27.125L16.625 26.25H0.875L1.75 27.125V21.0564V7.0188V0.875L0.875 1.75H16.625L15.75 0.875V8.75C15.75 9.23325 16.1418 9.625 16.625 9.625C17.1082 9.625 17.5 9.23325 17.5 8.75V0.875C17.5 0.391751 17.1082 0 16.625 0L0.875 0C0.391751 0 0 0.391751 0 0.875V7.0188L0 21.0564V27.125C0 27.6082 0.391751 28 0.875 28H16.625C17.1082 28 17.5 27.6082 17.5 27.125V19.25C17.5 18.7668 17.1082 18.375 16.625 18.375C16.1418 18.375 15.75 18.7668 15.75 19.25V27.125Z" fill="#1F5679"/>
</g>
<defs>
<clipPath id="clip0_229_49">
<rect width="28" height="28" fill="white"/>
</clipPath>
</defs>
</svg>
