<svg width="28" height="28" viewBox="0 0 28 28" fill="none" xmlns="http://www.w3.org/2000/svg">
<g clip-path="url(#clip0_229_12)">
<path d="M5.83333 28C5.53 28 5.25 27.8833 5.01667 27.6733L0.35 23.17C0.135376 22.9417 0.0109965 22.6431 0 22.33V5.66997C0 5.36664 0.14 5.06331 0.35 4.82997L5.01667 0.32664C5.36667 -2.63503e-05 5.85667 -0.0933597 6.3 0.093307C6.72 0.279974 7 0.699974 7 1.16664V26.8333C7 27.3 6.72 27.72 6.3 27.9066C6.13667 27.9766 5.99667 28 5.83333 28ZM22.1667 19.8333C22.0267 19.8333 21.8633 19.81 21.7233 19.74C21.5101 19.6527 21.3275 19.5041 21.1988 19.3131C21.07 19.122 21.0008 18.897 21 18.6666L20.9767 9.19331C20.9767 8.72664 21.2567 8.28331 21.7 8.11997C22.1433 7.93331 22.6333 8.04997 22.96 8.37664L26.8567 12.3433C27.7433 13.2533 27.7433 14.7233 26.8333 15.6333L22.9833 19.4833C22.8792 19.5954 22.7527 19.6844 22.612 19.7447C22.4714 19.805 22.3197 19.8352 22.1667 19.8333Z" fill="#1F5679"/>
<path d="M5.83331 5.83337H14C14.6533 5.83337 15.1666 6.34671 15.1666 7.00004V9.33337M5.83331 22.1667H14C14.6533 22.1667 15.1666 21.6534 15.1666 21V18.6667M25.6666 14H11.6666" stroke="#1F5679" stroke-linecap="round"/>
</g>
<defs>
<clipPath id="clip0_229_12">
<rect width="28" height="28" fill="white"/>
</clipPath>
</defs>
</svg>
