<svg width="28" height="28" viewBox="0 0 28 28" fill="none" xmlns="http://www.w3.org/2000/svg">
<g clip-path="url(#clip0_228_3337)">
<path d="M26.75 14C26.75 21.0416 21.0416 26.75 14 26.75C6.95837 26.75 1.25 21.0416 1.25 14C1.25 6.95837 6.95837 1.25 14 1.25C21.0416 1.25 26.75 6.95837 26.75 14Z" fill="#A3CEF1" fill-opacity="0.38" stroke="#6096BA" stroke-width="2.5"/>
<path d="M15.0514 21H12.949C12.8199 21 12.6954 20.9523 12.5995 20.866C12.5036 20.7797 12.4429 20.661 12.4294 20.5326L12.2737 19.0668C12.0564 18.9929 11.8441 18.9049 11.6381 18.8035L10.4927 19.7299C10.3924 19.8106 10.2659 19.8515 10.1374 19.8447C10.0088 19.8379 9.88732 19.7839 9.79617 19.693L8.30945 18.2063C8.21857 18.1151 8.16453 17.9936 8.15772 17.8651C8.15091 17.7365 8.19179 17.61 8.27254 17.5097L9.19925 16.3629C9.0977 16.157 9.00964 15.9447 8.93562 15.7274L7.46736 15.5706C7.3391 15.5571 7.2204 15.4965 7.13411 15.4006C7.04783 15.3048 7.00006 15.1804 7 15.0514V12.9486C7.00006 12.8196 7.04783 12.6952 7.13411 12.5994C7.2204 12.5035 7.3391 12.4429 7.46736 12.4294L8.93318 12.2737C9.0072 12.0563 9.09526 11.844 9.19682 11.6381L8.2701 10.4913C8.18936 10.391 8.14847 10.2645 8.15528 10.136C8.1621 10.0074 8.21613 9.88593 8.30701 9.79478L9.79373 8.30806C9.88488 8.21717 10.0064 8.16314 10.1349 8.15633C10.2635 8.14952 10.39 8.1904 10.4902 8.27115L11.6371 9.19751C11.843 9.09613 12.0553 9.00819 12.2726 8.93423L12.4283 7.46841C12.4417 7.33972 12.5023 7.22057 12.5985 7.13404C12.6947 7.0475 12.8196 6.99974 12.949 7H15.0514C15.1804 6.99997 15.3049 7.0477 15.4009 7.134C15.4968 7.22029 15.5574 7.33904 15.571 7.46736L15.7263 8.93318C15.9437 9.00714 16.1562 9.09509 16.3622 9.19647L17.5087 8.2701C17.609 8.18936 17.7355 8.14847 17.864 8.15528C17.9926 8.1621 18.1141 8.21613 18.2052 8.30702L19.6919 9.79373C19.7828 9.88488 19.8369 10.0064 19.8437 10.1349C19.8505 10.2635 19.8096 10.39 19.7289 10.4902L18.8021 11.6371C18.9035 11.8431 18.9916 12.0553 19.0658 12.2726L20.5316 12.4283C20.6598 12.442 20.7784 12.5026 20.8646 12.5984C20.9508 12.6943 20.9986 12.8186 20.9986 12.9476V15.0503C20.9989 15.1792 20.9514 15.3037 20.8655 15.3997C20.7795 15.4958 20.6611 15.5566 20.533 15.5706L19.0672 15.7263C18.993 15.9436 18.9049 16.1559 18.8035 16.3619L19.7302 17.5087C19.811 17.609 19.8519 17.7355 19.8451 17.864C19.8382 17.9926 19.7842 18.1141 19.6933 18.2052L18.2066 19.693C18.1155 19.7839 17.994 19.8379 17.8654 19.8447C17.7369 19.8515 17.6103 19.8106 17.5101 19.7299L16.3636 18.8035C16.1576 18.9049 15.9451 18.9929 15.7277 19.0668L15.5724 20.5326C15.5588 20.6612 15.498 20.7801 15.4017 20.8665C15.3055 20.9528 15.1807 21.0004 15.0514 21ZM13.4181 19.9552H14.5809L14.7233 18.6123C14.7345 18.5072 14.7773 18.408 14.8461 18.3277C14.9148 18.2474 15.0064 18.1899 15.1085 18.1627C15.4765 18.0646 15.8297 17.9179 16.1589 17.7264C16.2505 17.673 16.3562 17.6487 16.462 17.6569C16.5677 17.665 16.6685 17.7052 16.7509 17.772L17.8012 18.6207L18.6235 17.7985L17.7734 16.7512C17.7066 16.6689 17.6664 16.5681 17.6583 16.4623C17.6501 16.3566 17.6744 16.2508 17.7278 16.1592C17.9189 15.8303 18.0651 15.4772 18.1627 15.1096C18.1899 15.0073 18.2475 14.9158 18.3278 14.847C18.4082 14.7783 18.5075 14.7355 18.6127 14.7244L19.9552 14.5816V13.4188L18.6127 13.276C18.5075 13.2649 18.4082 13.2221 18.3278 13.1533C18.2475 13.0845 18.1899 12.993 18.1627 12.8908C18.0652 12.523 17.9189 12.1699 17.7278 11.8408C17.6744 11.7491 17.6501 11.6434 17.6583 11.5377C17.6664 11.4319 17.7066 11.3311 17.7734 11.2488L18.6221 10.1984L17.7998 9.37617L16.7495 10.2249C16.6671 10.2917 16.5663 10.3318 16.4606 10.34C16.3548 10.3481 16.2491 10.3239 16.1575 10.2705C15.8284 10.0795 15.4755 9.93326 15.1078 9.83552C15.0057 9.80835 14.9142 9.75083 14.8454 9.67055C14.7766 9.59028 14.7338 9.49103 14.7226 9.38592L14.5816 8.04478H13.4181L13.2756 9.38766C13.2644 9.49282 13.2216 9.5921 13.1527 9.67238C13.0839 9.75266 12.9923 9.81015 12.8901 9.83726C12.5227 9.93545 12.1701 10.0822 11.8415 10.2736C11.7498 10.327 11.6441 10.3513 11.5384 10.3431C11.4326 10.335 11.3318 10.2948 11.2495 10.228L10.2001 9.37791L9.37826 10.2001L10.2273 11.2505C10.2941 11.3329 10.3342 11.4337 10.3422 11.5395C10.3503 11.6452 10.326 11.7509 10.2726 11.8425C10.0818 12.1716 9.93551 12.5246 9.83761 12.8922C9.81044 12.9943 9.75292 13.0858 9.67264 13.1546C9.59237 13.2234 9.49312 13.2662 9.38801 13.2774L8.04512 13.4201V14.5826L9.38801 14.7254C9.49312 14.7366 9.59237 14.7794 9.67264 14.8482C9.75292 14.9169 9.81044 15.0084 9.83761 15.1106C9.93549 15.4778 10.0816 15.8304 10.2722 16.1592C10.3257 16.2508 10.35 16.3565 10.3419 16.4623C10.3338 16.568 10.2937 16.6688 10.227 16.7512L9.37826 17.7998L10.2005 18.6221L11.2512 17.7734C11.3336 17.7066 11.4343 17.6664 11.5401 17.6583C11.6459 17.6501 11.7516 17.6744 11.8432 17.7278C12.1721 17.9188 12.525 18.065 12.8925 18.1627C12.9948 18.1898 13.0863 18.2473 13.1552 18.3276C13.224 18.4079 13.2669 18.5072 13.2781 18.6123L13.4181 19.9552Z" fill="#1F5679"/>
<path d="M13.9999 17.1816C13.3707 17.1816 12.7556 16.9949 12.2324 16.6452C11.7092 16.2956 11.3015 15.7987 11.0607 15.2173C10.8199 14.6359 10.757 13.9962 10.8798 13.379C11.0026 12.7618 11.3056 12.1949 11.7506 11.75C12.1956 11.3051 12.7625 11.0021 13.3797 10.8793C13.9969 10.7566 14.6366 10.8196 15.218 11.0605C15.7993 11.3013 16.2962 11.7091 16.6458 12.2323C16.9954 12.7555 17.182 13.3707 17.182 13.9999C17.1811 14.8435 16.8455 15.6523 16.2489 16.2488C15.6524 16.8453 14.8436 17.1808 13.9999 17.1816ZM13.9999 11.863C13.5773 11.8631 13.1642 11.9885 12.8128 12.2233C12.4615 12.4582 12.1876 12.7919 12.0259 13.1824C11.8643 13.5729 11.822 14.0025 11.9045 14.417C11.987 14.8315 12.1905 15.2123 12.4894 15.5111C12.7883 15.8099 13.169 16.0134 13.5835 16.0958C13.998 16.1782 14.4277 16.1359 14.8181 15.9741C15.2086 15.8124 15.5423 15.5385 15.7771 15.1871C16.0119 14.8357 16.1372 14.4226 16.1372 13.9999C16.1366 13.4333 15.9112 12.8901 15.5105 12.4895C15.1098 12.0889 14.5666 11.8636 13.9999 11.863Z" fill="#1F5679"/>
</g>
<defs>
<clipPath id="clip0_228_3337">
<rect width="28" height="28" fill="white"/>
</clipPath>
</defs>
</svg>
