<svg width="12" height="12" viewBox="0 0 12 12" fill="none" xmlns="http://www.w3.org/2000/svg">
<path d="M5.04372 1.12709C5.33222 0.183672 6.66778 0.183671 6.95628 1.12709L7.57973 3.16579C7.7083 3.58622 8.09638 3.87336 8.53602 3.87336L10.6765 3.87336C11.6305 3.87336 12.0428 5.08199 11.2876 5.66494L9.45365 7.08066C9.12422 7.33496 8.98673 7.76671 9.10843 8.16468L9.784 10.3738C10.069 11.3059 8.98821 12.0535 8.21666 11.4579L6.61106 10.2184C6.25108 9.94053 5.74892 9.94053 5.38894 10.2184L3.78334 11.4579C3.01179 12.0535 1.93096 11.3059 2.21599 10.3738L2.89157 8.16468C3.01327 7.76671 2.87578 7.33496 2.54635 7.08066L0.712397 5.66494C-0.0427631 5.08199 0.36947 3.87336 1.32346 3.87336L3.46398 3.87336C3.90362 3.87336 4.2917 3.58622 4.42027 3.16579L5.04372 1.12709Z" fill="#FFCB3A"/>
</svg>
